<?xml version="1.0" encoding="utf-8"?>
<!-- Generator: Adobe Illustrator 26.0.2, SVG Export Plug-In . SVG Version: 6.00 Build 0)  -->
<svg version="1.1" id="Layer_1" xmlns="http://www.w3.org/2000/svg" xmlns:xlink="http://www.w3.org/1999/xlink" x="0px" y="0px"
	 viewBox="0 0 308 308" style="enable-background:new 0 0 308 308;" xml:space="preserve">
<style type="text/css">
	.st0{fill:#FFFFFF;}
</style>
<path id="XMLID_469_" class="st0" d="M285.25,203c-1.13-0.54-43.44-21.38-50.96-24.08c-3.07-1.1-6.36-2.18-9.85-2.18
	c-5.71,0-10.51,2.85-14.25,8.44c-4.23,6.28-17.02,21.24-20.97,25.7c-0.52,0.59-1.22,1.29-1.64,1.29c-0.38,0-6.93-2.7-8.91-3.56
	c-45.39-19.71-79.83-67.12-84.56-75.12c-0.67-1.15-0.7-1.67-0.71-1.67c0.17-0.61,1.69-2.14,2.48-2.93c2.3-2.28,4.8-5.29,7.22-8.19
	c1.14-1.38,2.29-2.76,3.41-4.06c3.5-4.08,5.06-7.24,6.87-10.91l0.95-1.9c4.42-8.77,0.64-16.18-0.57-18.57
	c-1-2-18.86-45.12-20.76-49.65C88.42,24.69,82.39,19.6,74,19.6c-0.78,0,0,0-3.26,0.14c-3.97,0.17-25.61,3.02-35.18,9.05
	C25.41,35.18,8.25,55.57,8.25,91.43c0,32.27,20.48,62.75,29.28,74.34c0.22,0.29,0.62,0.89,1.2,1.74
	c33.68,49.18,75.66,85.63,118.22,102.63c40.97,16.37,60.37,18.26,71.4,18.26c0,0,0,0,0,0c4.64,0,8.35-0.36,11.62-0.69l2.08-0.2
	c14.15-1.25,45.26-17.37,52.33-37.03c5.57-15.49,7.04-32.41,3.34-38.55C295.17,207.76,290.79,205.66,285.25,203z"/>
</svg>
